<?xml version="1.0" encoding="UTF-8" standalone="no"?>
<svg
   xmlns:dc="http://purl.org/dc/elements/1.1/"
   xmlns:cc="http://creativecommons.org/ns#"
   xmlns:rdf="http://www.w3.org/1999/02/22-rdf-syntax-ns#"
   xmlns:svg="http://www.w3.org/2000/svg"
   xmlns="http://www.w3.org/2000/svg"
   xmlns:sodipodi="http://sodipodi.sourceforge.net/DTD/sodipodi-0.dtd"
   xmlns:inkscape="http://www.inkscape.org/namespaces/inkscape"
   sodipodi:docname="Di'Po.svg"
   inkscape:version="1.0 (1.0+r73+1)"
   id="svg8"
   version="1.1"
   viewBox="0 0 210 297"
   height="297mm"
   width="210mm">
  <defs
     id="defs2" />
  <sodipodi:namedview
     inkscape:document-rotation="0"
     inkscape:guide-bbox="true"
     showguides="true"
     inkscape:window-maximized="1"
     inkscape:window-y="34"
     inkscape:window-x="0"
     inkscape:window-height="966"
     inkscape:window-width="1280"
     showborder="true"
     showgrid="false"
     inkscape:current-layer="layer1"
     inkscape:document-units="mm"
     inkscape:cy="352.12772"
     inkscape:cx="1019.1921"
     inkscape:zoom="0.175"
     inkscape:pageshadow="2"
     inkscape:pageopacity="0.0"
     borderopacity="1.0"
     bordercolor="#666666"
     pagecolor="#ffffff"
     id="base">
    <sodipodi:guide
       inkscape:locked="false"
       id="guide831"
       orientation="0,1"
       position="143.67584,54.323192" />
  </sodipodi:namedview>
  <metadata
     id="metadata5">
    <rdf:RDF>
      <cc:Work
         rdf:about="">
        <dc:format>image/svg+xml</dc:format>
        <dc:type
           rdf:resource="http://purl.org/dc/dcmitype/StillImage" />
        <dc:title></dc:title>
        <cc:license
           rdf:resource="http://creativecommons.org/publicdomain/zero/1.0/" />
      </cc:Work>
      <cc:License
         rdf:about="http://creativecommons.org/publicdomain/zero/1.0/">
        <cc:permits
           rdf:resource="http://creativecommons.org/ns#Reproduction" />
        <cc:permits
           rdf:resource="http://creativecommons.org/ns#Distribution" />
        <cc:permits
           rdf:resource="http://creativecommons.org/ns#DerivativeWorks" />
      </cc:License>
    </rdf:RDF>
  </metadata>
  <g
     id="layer1"
     inkscape:groupmode="layer"
     inkscape:label="Calque 1">
    <path
       sodipodi:nodetypes="ssczcsccccccccssssccccccscczccscccsscccccccssccccczccsscssccsscsz"
       inkscape:connector-curvature="0"
       id="rect29"
       d="m 90.53627,50.933022 c -0.96027,0 -1.73375,0.952667 -1.73375,2.135786 v 0.228102 c 0.0226,0.538814 -0.15459,0.766443 -0.52759,1.164 -0.37301,0.397555 -0.81231,0.577287 -1.4183,0.577287 H 50.97486 c -0.831,0 -1.51819,0.669364 -1.50017,1.500169 l 0.0501,2.310453 c 0.007,0.314311 0.51672,1.1837 1.3348,1.20251 0.59399,0.01365 0.75064,-0.03478 1.34152,-0.03307 0.80177,0.0024 1.1909,0.485529 1.44642,0.681611 0.41009,0.31469 0.41031,1.245921 0.41031,1.245921 v 1.021641 0.981852 10.182842 c 0,1.732423 0.77297,3.126941 1.73323,3.126941 h 3.48248 c 0.96026,0 1.73322,-1.394518 1.73322,-3.126941 v -8.265128 c 0,0 0.13387,-0.799637 0.2341,-1.249538 0.069,-0.309774 0.65355,-1.008726 0.92708,-1.111559 l 1.24385,-0.467672 h 30.7113 c 0,0 1.13181,-0.0043 2.26704,1.133782 0.50231,0.503576 1.51452,1.259416 0.971,2.593639 -0.80202,1.968825 -1.24439,4.118919 -1.24436,6.368086 -8e-5,5.701245 2.84085,10.768357 7.17763,13.856174 0.3515,0.249923 0.4214,0.26402 1.16291,0.5412 0.74151,0.277177 0.85665,0.237008 1.34186,0.235995 l 14.58306,-0.03046 c 0.49536,-0.01453 0.61797,0.02286 1.22895,-0.141666 0.74883,-0.201642 0.78164,-0.23178 1.06114,-0.419291 4.4864,-3.067923 7.44399,-8.224863 7.44392,-14.041948 5e-5,-4.084798 -1.45888,-7.843789 -3.8809,-10.782805 0.15082,-0.234122 0.23926,-0.51249 0.23926,-0.812869 V 54.46718 c 0,-0.831001 -0.73919,-1.835216 -1.49965,-1.500166 0,0 -2.00238,1.142492 -3.09748,1.469678 -1.40036,0.418386 -4.34341,0.601512 -4.34341,0.601512 h -17.51676 c 0,0 -0.25164,0.0097 -0.37982,-0.01241 -0.85044,-0.146915 -1.69123,-0.444053 -2.44946,-0.856279 -0.53001,-0.288147 -1.43661,-1.100709 -1.43661,-1.100709 -0.93912,-0.719595 -0.77296,-2.135785 -1.73322,-2.135785 z m 30.47256,6.285405 c 1.10467,6.9e-5 2.00009,0.895718 1.99987,2.000393 -6e-5,1.104474 -0.8954,1.999811 -1.99987,1.999879 -1.10468,2.17e-4 -2.00033,-0.895201 -2.0004,-1.999879 -2.2e-4,-1.104876 0.89552,-2.00061 2.0004,-2.000393 z m -12.2784,5.884765 c 0.22978,-0.05328 0.44693,-0.06497 0.44693,-0.06497 h 8.17514 c 0,0 0.0681,-0.0045 0.15458,0.0074 0.0616,0.0085 0.0775,0.02315 0.11237,0.03867 3.84177,1.709065 6.49725,5.546891 6.4972,10.049459 5e-5,4.166569 -2.27319,7.764878 -5.65673,9.633109 -0.032,0.0177 -0.0808,0.03908 -0.11729,0.04216 l -0.1236,0.01045 h -10.08701 l -0.2039,-0.01773 c -0.0773,-0.0067 -0.19514,-0.0566 -0.26251,-0.0948 -3.32397,-1.884687 -5.54922,-5.451027 -5.54917,-9.573199 -6e-5,-4.365855 2.49668,-8.106753 6.15065,-9.887968 0.14862,-0.07245 0.23356,-0.08929 0.46334,-0.142573 z"
       style="stroke-width:0.264583" />
    <path
       style="stroke-width:0.264583"
       d="m 89.10172,119.13923 c -0.96027,0 -1.73375,0.95266 -1.73375,2.13578 v 0.2281 c 0.0226,0.53882 -0.15459,0.76645 -0.52759,1.164 -0.37301,0.39756 -0.81231,0.57729 -1.41831,0.57729 H 49.54031 c -0.831,0 -1.51819,0.66936 -1.50017,1.50017 l 0.0501,2.31045 c 0.007,0.31431 0.51672,1.1837 1.3348,1.20251 0.59399,0.0137 0.75064,-0.0348 1.34152,-0.0331 0.80177,0.002 1.1909,0.48553 1.44643,0.68161 0.41008,0.31469 0.41031,1.24592 0.41031,1.24592 v 1.02164 0.98185 10.18285 c 0,1.73242 0.77296,3.12694 1.73322,3.12694 H 57.839 c 0.96027,0 1.73323,-1.39452 1.73323,-3.12694 v -8.26513 c 0,0 0.13387,-0.79964 0.23409,-1.24954 0.069,-0.30977 0.65355,-1.00873 0.92708,-1.11156 l 1.24385,-0.46767 h 30.7113 c 0,0 1.13182,-0.004 2.26705,1.13378 0.5023,0.50358 1.51451,1.25942 0.971,2.59364 -0.80203,1.96883 -1.2444,4.11892 -1.24437,6.36809 -7e-5,5.70124 2.84085,10.76835 7.17763,13.85617 0.3515,0.24992 0.4214,0.26402 1.16291,0.5412 0.74151,0.27718 0.85665,0.23701 1.34186,0.236 l 14.58306,-0.0305 c 0.49535,-0.0145 0.61796,0.0229 1.22894,-0.14166 0.74883,-0.20165 0.78165,-0.23179 1.06114,-0.4193 4.4864,-3.06792 7.444,-8.22486 7.44392,-14.04194 6e-5,-4.0848 -1.45887,-7.84379 -3.8809,-10.78281 0.15082,-0.23412 0.23927,-0.51249 0.23927,-0.81287 v -7.07088 c 0,-0.831 -0.73919,-1.83522 -1.49965,-1.50017 0,0 -2.00239,1.14249 -3.09749,1.46968 -1.40036,0.41838 -4.3434,0.60151 -4.3434,0.60151 H 98.58276 c 0,0 -0.25164,0.01 -0.37982,-0.0124 -0.85045,-0.14691 -1.69123,-0.44405 -2.44946,-0.85628 -0.53001,-0.28814 -1.43661,-1.10071 -1.43661,-1.10071 -0.93912,-0.71959 -0.77296,-2.13578 -1.73323,-2.13578 z m 30.47255,6.2854 c 1.10467,7e-5 2.00009,0.89572 1.99988,2.00039 -7e-5,1.10448 -0.89541,1.99981 -1.99988,1.99988 -1.10468,2.2e-4 -2.00033,-0.8952 -2.0004,-1.99988 -2.1e-4,-1.10487 0.89552,-2.00061 2.0004,-2.00039 z m -12.27839,5.88476 c 0.22978,-0.0533 0.44693,-0.065 0.44693,-0.065 h 8.17513 c 0,0 0.0681,-0.005 0.15459,0.007 0.0617,0.008 0.0775,0.0231 0.11237,0.0387 3.84177,1.70906 6.49725,5.54689 6.49719,10.04946 5e-5,4.16656 -2.27318,7.76487 -5.65673,9.63311 -0.032,0.0177 -0.0808,0.0391 -0.11729,0.0422 l -0.12359,0.0105 h -10.08701 l -0.2039,-0.0177 c -0.0773,-0.007 -0.19514,-0.0566 -0.26251,-0.0948 -3.32397,-1.88469 -5.54923,-5.45103 -5.54917,-9.5732 -6e-5,-4.36586 2.49668,-8.10676 6.15065,-9.88797 0.14862,-0.0725 0.23356,-0.0893 0.46334,-0.14258 z"
       id="path10"
       inkscape:connector-curvature="0"
       sodipodi:nodetypes="ssczcsccccccccssssccccccscczccscccsscccccccssccccczccsscssccsscsz" />
    <path
       sodipodi:nodetypes="ssczcsccccccccssssccccccscczccscccsscccccccssccccczccsscssccsscsz"
       inkscape:connector-curvature="0"
       id="path12"
       d="m 100.09298,168.3383 c 0.96027,0 1.73375,-0.95266 1.73375,-2.13578 v -0.2281 c -0.0226,-0.53882 0.15459,-0.76645 0.52759,-1.164 0.37301,-0.39756 0.81231,-0.57729 1.41831,-0.57729 h 35.88176 c 0.831,0 1.51819,-0.66936 1.50017,-1.50017 l -0.0501,-2.31045 c -0.007,-0.31431 -0.51672,-1.1837 -1.3348,-1.20251 -0.59399,-0.0137 -0.75064,0.0348 -1.34152,0.0331 -0.80177,-0.002 -1.1909,-0.48553 -1.44643,-0.68161 -0.41008,-0.31469 -0.41031,-1.24592 -0.41031,-1.24592 v -1.02164 -0.98185 -10.18285 c 0,-1.73242 -0.77296,-3.12694 -1.73322,-3.12694 h -3.48248 c -0.96027,0 -1.73323,1.39452 -1.73323,3.12694 v 8.26513 c 0,0 -0.13387,0.79964 -0.23409,1.24954 -0.069,0.30977 -0.65355,1.00873 -0.92708,1.11156 l -1.24385,0.46767 h -30.7113 c 0,0 -1.13182,0.004 -2.26705,-1.13378 -0.5023,-0.50358 -1.51451,-1.25942 -0.971,-2.59364 0.80203,-1.96883 1.2444,-4.11892 1.24437,-6.36809 7e-5,-5.70124 -2.84085,-10.76835 -7.17763,-13.85617 -0.3515,-0.24992 -0.4214,-0.26402 -1.16291,-0.5412 -0.74151,-0.27718 -0.85665,-0.23701 -1.34186,-0.236 l -14.58306,0.0305 c -0.49535,0.0145 -0.61796,-0.0229 -1.22894,0.14166 -0.74883,0.20165 -0.78165,0.23179 -1.06114,0.4193 -4.4864,3.06792 -7.444,8.22486 -7.44392,14.04194 -6e-5,4.0848 1.45887,7.84379 3.8809,10.78281 -0.15082,0.23412 -0.23927,0.51249 -0.23927,0.81287 v 7.07088 c 0,0.831 0.73919,1.83522 1.49965,1.50017 0,0 2.00239,-1.14249 3.09749,-1.46968 1.40036,-0.41838 4.3434,-0.60151 4.3434,-0.60151 h 17.51676 c 0,0 0.25164,-0.01 0.37982,0.0124 0.85045,0.14691 1.69123,0.44405 2.44946,0.85628 0.53001,0.28814 1.43661,1.10071 1.43661,1.10071 0.93912,0.71959 0.77296,2.13578 1.73323,2.13578 z m -30.47255,-6.2854 c -1.10467,-7e-5 -2.00009,-0.89572 -1.99988,-2.00039 7e-5,-1.10448 0.89541,-1.99981 1.99988,-1.99988 1.10468,-2.2e-4 2.00033,0.8952 2.0004,1.99988 2.1e-4,1.10487 -0.89552,2.00061 -2.0004,2.00039 z m 12.27839,-5.88476 c -0.22978,0.0533 -0.44693,0.065 -0.44693,0.065 h -8.17513 c 0,0 -0.0681,0.005 -0.15459,-0.007 -0.0617,-0.008 -0.0775,-0.0231 -0.11237,-0.0387 -3.84177,-1.70906 -6.49725,-5.54689 -6.49719,-10.04946 -5e-5,-4.16656 2.27318,-7.76487 5.65673,-9.63311 0.032,-0.0177 0.0808,-0.0391 0.11729,-0.0422 l 0.12359,-0.0105 h 10.08701 l 0.2039,0.0177 c 0.0773,0.007 0.19514,0.0566 0.26251,0.0948 3.32397,1.88469 5.54923,5.45103 5.54917,9.5732 6e-5,4.36586 -2.49668,8.10676 -6.15065,9.88797 -0.14862,0.0725 -0.23356,0.0893 -0.46334,0.14258 z"
       style="stroke-width:0.264583" />
    <path
       sodipodi:nodetypes="ssczcsccccccccssssccccccscczccscccsscccccccssccccczccsscssccsscsz"
       inkscape:connector-curvature="0"
       id="path815"
       d="m 55.42576,197.18193 c -0.96027,0 -1.73375,0.95266 -1.73375,2.13578 v 0.2281 c 0.0226,0.53882 -0.15459,0.76645 -0.52759,1.164 -0.37301,0.39756 -0.81231,0.57729 -1.41831,0.57729 H 15.86435 c -0.831,0 -1.51819,0.66936 -1.50017,1.50017 l 0.0501,2.31045 c 0.007,0.31431 0.51672,1.1837 1.3348,1.20251 0.59399,0.0137 0.75064,-0.0348 1.34152,-0.0331 0.80177,0.002 1.1909,0.48553 1.44643,0.68161 0.41008,0.31469 0.41031,1.24592 0.41031,1.24592 v 1.02164 0.98185 10.18285 c 0,1.73242 0.77296,3.12694 1.73322,3.12694 h 3.48248 c 0.96027,0 1.73323,-1.39452 1.73323,-3.12694 v -8.26513 c 0,0 0.13387,-0.79964 0.23409,-1.24954 0.069,-0.30977 0.65355,-1.00873 0.92708,-1.11156 l 1.24385,-0.46767 h 30.7113 c 0,0 1.13182,-0.004 2.26705,1.13378 0.5023,0.50358 1.51451,1.25942 0.971,2.59364 -0.80203,1.96883 -1.2444,4.11892 -1.24437,6.36809 -7e-5,5.70124 2.84085,10.76835 7.17763,13.85617 0.3515,0.24992 0.4214,0.26402 1.16291,0.5412 0.74151,0.27718 0.85665,0.23701 1.34186,0.236 l 14.58306,-0.0305 c 0.49535,-0.0145 0.61796,0.0229 1.22894,-0.14166 0.74883,-0.20165 0.78165,-0.23179 1.06114,-0.4193 4.4864,-3.06792 7.444,-8.22486 7.44392,-14.04194 6e-5,-4.0848 -1.45887,-7.84379 -3.8809,-10.78281 0.15082,-0.23412 0.23927,-0.51249 0.23927,-0.81287 v -7.07088 c 0,-0.831 -0.73919,-1.83522 -1.49965,-1.50017 0,0 -2.00239,1.14249 -3.09749,1.46968 -1.40036,0.41838 -4.3434,0.60151 -4.3434,0.60151 H 64.9068 c 0,0 -0.25164,0.01 -0.37982,-0.0124 -0.85045,-0.14691 -1.69123,-0.44405 -2.44946,-0.85628 -0.53001,-0.28814 -1.43661,-1.10071 -1.43661,-1.10071 -0.93912,-0.71959 -0.77296,-2.13578 -1.73323,-2.13578 z m 30.47255,6.2854 c 1.10467,7e-5 2.00009,0.89572 1.99988,2.00039 -7e-5,1.10448 -0.89541,1.99981 -1.99988,1.99988 -1.10468,2.2e-4 -2.00033,-0.8952 -2.0004,-1.99988 -2.1e-4,-1.10487 0.89552,-2.00061 2.0004,-2.00039 z m -12.27839,5.88476 c 0.22978,-0.0533 0.44693,-0.065 0.44693,-0.065 h 8.17513 c 0,0 0.0681,-0.005 0.15459,0.007 0.0617,0.008 0.0775,0.0231 0.11237,0.0387 3.84177,1.70906 6.49725,5.54689 6.49719,10.04946 5e-5,4.16656 -2.27318,7.76487 -5.65673,9.63311 -0.032,0.0177 -0.0808,0.0391 -0.11729,0.0422 l -0.12359,0.0105 H 73.02151 l -0.2039,-0.0177 c -0.0773,-0.007 -0.19514,-0.0566 -0.26251,-0.0948 -3.32397,-1.88469 -5.54923,-5.45103 -5.54917,-9.5732 -6e-5,-4.36586 2.49668,-8.10676 6.15065,-9.88797 0.14862,-0.0725 0.23356,-0.0893 0.46334,-0.14258 z"
       style="stroke-width:0.264583" />
    <path
       style="stroke-width:0.264583"
       d="m 66.41702,246.381 c 0.96027,0 1.73375,-0.95266 1.73375,-2.13578 v -0.2281 c -0.0226,-0.53882 0.15459,-0.76645 0.52759,-1.164 0.37301,-0.39756 0.81231,-0.57729 1.41831,-0.57729 h 35.88176 c 0.831,0 1.51819,-0.66936 1.50017,-1.50017 l -0.0501,-2.31045 c -0.007,-0.31431 -0.51672,-1.1837 -1.3348,-1.20251 -0.59399,-0.0137 -0.75064,0.0348 -1.34152,0.0331 -0.80177,-0.002 -1.1909,-0.48553 -1.44643,-0.68161 -0.41008,-0.31469 -0.41031,-1.24592 -0.41031,-1.24592 v -1.02164 -0.98185 -10.18285 c 0,-1.73242 -0.77296,-3.12694 -1.73322,-3.12694 h -3.48248 c -0.96027,0 -1.73323,1.39452 -1.73323,3.12694 v 8.26513 c 0,0 -0.13387,0.79964 -0.23409,1.24954 -0.069,0.30977 -0.65355,1.00873 -0.92708,1.11156 l -1.24385,0.46767 h -30.7113 c 0,0 -1.13182,0.004 -2.26705,-1.13378 -0.5023,-0.50358 -1.51451,-1.25942 -0.971,-2.59364 0.80203,-1.96883 1.2444,-4.11892 1.24437,-6.36809 7e-5,-5.70124 -2.84085,-10.76835 -7.17763,-13.85617 -0.3515,-0.24992 -0.4214,-0.26402 -1.16291,-0.5412 -0.74151,-0.27718 -0.85665,-0.23701 -1.34186,-0.236 l -14.58306,0.0305 c -0.49535,0.0145 -0.61796,-0.0229 -1.22894,0.14166 -0.74883,0.20165 -0.78165,0.23179 -1.06114,0.4193 -4.4864,3.06792 -7.444,8.22486 -7.44392,14.04194 -6e-5,4.0848 1.45887,7.84379 3.8809,10.78281 -0.15082,0.23412 -0.23927,0.51249 -0.23927,0.81287 v 7.07088 c 0,0.831 0.73919,1.83522 1.49965,1.50017 0,0 2.00239,-1.14249 3.09749,-1.46968 1.40036,-0.41838 4.3434,-0.60151 4.3434,-0.60151 h 17.51676 c 0,0 0.25164,-0.01 0.37982,0.0124 0.85045,0.14691 1.69123,0.44405 2.44946,0.85628 0.53001,0.28814 1.43661,1.10071 1.43661,1.10071 0.93912,0.71959 0.77296,2.13578 1.73323,2.13578 z m -30.47255,-6.2854 c -1.10467,-7e-5 -2.00009,-0.89572 -1.99988,-2.00039 7e-5,-1.10448 0.89541,-1.99981 1.99988,-1.99988 1.10468,-2.2e-4 2.00033,0.8952 2.0004,1.99988 2.1e-4,1.10487 -0.89552,2.00061 -2.0004,2.00039 z m 12.27839,-5.88476 c -0.22978,0.0533 -0.44693,0.065 -0.44693,0.065 H 39.6008 c 0,0 -0.0681,0.005 -0.15459,-0.007 -0.0617,-0.008 -0.0775,-0.0231 -0.11237,-0.0387 -3.84177,-1.70906 -6.49725,-5.54689 -6.49719,-10.04946 -5e-5,-4.16656 2.27318,-7.76487 5.65673,-9.63311 0.032,-0.0177 0.0808,-0.0391 0.11729,-0.0422 l 0.12359,-0.0105 h 10.08701 l 0.2039,0.0177 c 0.0773,0.007 0.19514,0.0566 0.26251,0.0948 3.32397,1.88469 5.54923,5.45103 5.54917,9.5732 6e-5,4.36586 -2.49668,8.10676 -6.15065,9.88797 -0.14862,0.0725 -0.23356,0.0893 -0.46334,0.14258 z"
       id="path817"
       inkscape:connector-curvature="0"
       sodipodi:nodetypes="ssczcsccccccccssssccccccscczccscccsscccccccssccccczccsscssccsscsz" />
    <path
       style="stroke-width:0.264583"
       d="m 132.68458,193.47774 c -0.96027,0 -1.73375,0.95266 -1.73375,2.13578 v 0.2281 c 0.0226,0.53882 -0.15459,0.76645 -0.52759,1.164 -0.37301,0.39756 -0.81231,0.57729 -1.41831,0.57729 h -35.8818 c -0.83101,0 -1.5182,0.66936 -1.50018,1.50017 l 0.0501,2.31045 c 0.007,0.31431 0.51672,1.1837 1.33481,1.20251 0.59399,0.0137 0.75064,-0.0348 1.34153,-0.0331 0.80177,0.002 1.1909,0.48553 1.44644,0.68161 0.41008,0.31469 0.41031,1.24592 0.41031,1.24592 v 1.02164 0.98185 10.18285 c 0,1.73242 0.77296,3.12694 1.73323,3.12694 h 3.48249 c 0.96027,0 1.73323,-1.39452 1.73323,-3.12694 v -8.26513 c 0,0 0.13387,-0.79964 0.23409,-1.24954 0.069,-0.30977 0.65355,-1.00873 0.92708,-1.11156 l 1.24385,-0.46767 h 30.7113 c 0,0 1.13182,-0.004 2.26705,1.13378 0.5023,0.50358 1.51451,1.25942 0.971,2.59364 -0.80203,1.96883 -1.2444,4.11892 -1.24437,6.36809 -7e-5,5.70124 2.84085,10.76835 7.17763,13.85617 0.3515,0.24992 0.4214,0.26402 1.16291,0.5412 0.74151,0.27718 0.85665,0.23701 1.34186,0.236 l 14.58306,-0.0305 c 0.49535,-0.0145 0.61796,0.0229 1.22894,-0.14166 0.74883,-0.20165 0.78165,-0.23179 1.06114,-0.4193 4.4864,-3.06792 7.444,-8.22486 7.44392,-14.04194 6e-5,-4.0848 -1.45887,-7.84379 -3.8809,-10.78281 0.15082,-0.23412 0.23927,-0.51249 0.23927,-0.81287 v -7.07088 c 0,-0.831 -0.73919,-1.83522 -1.49965,-1.50017 0,0 -2.00239,1.14249 -3.09749,1.46968 -1.40036,0.41838 -4.3434,0.60151 -4.3434,0.60151 h -17.51676 c 0,0 -0.25164,0.01 -0.37982,-0.0124 -0.85045,-0.14691 -1.69123,-0.44405 -2.44946,-0.85628 -0.53001,-0.28814 -1.43661,-1.10071 -1.43661,-1.10071 -0.93912,-0.71959 -0.77296,-2.13578 -1.73323,-2.13578 z m 30.47255,6.2854 c 1.10467,7e-5 2.00009,0.89572 1.99988,2.00039 -7e-5,1.10448 -0.89541,1.99981 -1.99988,1.99988 -1.10468,2.2e-4 -2.00033,-0.8952 -2.0004,-1.99988 -2.1e-4,-1.10487 0.89552,-2.00061 2.0004,-2.00039 z m -12.27839,5.88476 c 0.22978,-0.0533 0.44693,-0.065 0.44693,-0.065 h 8.17513 c 0,0 0.0681,-0.005 0.15459,0.007 0.0617,0.008 0.0775,0.0231 0.11237,0.0387 3.84177,1.70906 6.49725,5.54689 6.49719,10.04946 5e-5,4.16656 -2.27318,7.76487 -5.65673,9.63311 -0.032,0.0177 -0.0808,0.0391 -0.11729,0.0422 l -0.12359,0.0105 h -10.08701 l -0.2039,-0.0177 c -0.0773,-0.007 -0.19514,-0.0566 -0.26251,-0.0948 -3.32397,-1.88469 -5.54923,-5.45103 -5.54917,-9.5732 -6e-5,-4.36586 2.49668,-8.10676 6.15065,-9.88797 0.14862,-0.0725 0.23356,-0.0893 0.46334,-0.14258 z"
       id="path819"
       inkscape:connector-curvature="0"
       sodipodi:nodetypes="ssczcsccccccccssssccccccscczccscccsscccccccssccccczccsscssccsscsz" />
    <path
       sodipodi:nodetypes="ssczcsccccccccssssccccccscczccscccsscccccccssccccczccsscssccsscsz"
       inkscape:connector-curvature="0"
       id="path821"
       d="m 143.67584,242.67681 c 0.96027,0 1.73375,-0.95266 1.73375,-2.13578 v -0.2281 c -0.0226,-0.53882 0.15459,-0.76645 0.52759,-1.164 0.37301,-0.39756 0.81231,-0.57729 1.41831,-0.57729 h 35.88176 c 0.831,0 1.51819,-0.66936 1.50017,-1.50017 l -0.0501,-2.31045 c -0.007,-0.31431 -0.51672,-1.1837 -1.3348,-1.20251 -0.59399,-0.0137 -0.75064,0.0348 -1.34152,0.0331 -0.80177,-0.002 -1.1909,-0.48553 -1.44643,-0.68161 -0.41008,-0.31469 -0.41031,-1.24592 -0.41031,-1.24592 v -1.02164 -0.98185 -10.18285 c 0,-1.73242 -0.77296,-3.12694 -1.73322,-3.12694 h -3.48248 c -0.96027,0 -1.73323,1.39452 -1.73323,3.12694 v 8.26513 c 0,0 -0.13387,0.79964 -0.23409,1.24954 -0.069,0.30977 -0.65355,1.00873 -0.92708,1.11156 l -1.24385,0.46767 h -30.7113 c 0,0 -1.13182,0.004 -2.26705,-1.13378 -0.5023,-0.50358 -1.51451,-1.25942 -0.971,-2.59364 0.80203,-1.96883 1.2444,-4.11892 1.24437,-6.36809 7e-5,-5.70124 -2.84085,-10.76835 -7.17763,-13.85617 -0.3515,-0.24992 -0.4214,-0.26402 -1.16291,-0.5412 -0.74151,-0.27718 -0.85665,-0.23701 -1.34186,-0.236 l -14.58306,0.0305 c -0.49535,0.0145 -0.61796,-0.0229 -1.22894,0.14166 -0.74883,0.20165 -0.78165,0.23179 -1.06114,0.4193 -4.4864,3.06792 -7.444,8.22486 -7.44392,14.04194 -6e-5,4.0848 1.45887,7.84379 3.8809,10.78281 -0.15082,0.23412 -0.23927,0.51249 -0.23927,0.81287 v 7.07088 c 0,0.831 0.73919,1.83522 1.49965,1.50017 0,0 2.00239,-1.14249 3.09749,-1.46968 1.40036,-0.41838 4.3434,-0.60151 4.3434,-0.60151 h 17.51676 c 0,0 0.25164,-0.01 0.37982,0.0124 0.85045,0.14691 1.69123,0.44405 2.44946,0.85628 0.53001,0.28814 1.43661,1.10071 1.43661,1.10071 0.93912,0.71959 0.77296,2.13578 1.73323,2.13578 z m -30.47255,-6.2854 c -1.10467,-7e-5 -2.00009,-0.89572 -1.99988,-2.00039 7e-5,-1.10448 0.89541,-1.99981 1.99988,-1.99988 1.10468,-2.2e-4 2.00033,0.8952 2.0004,1.99988 2.1e-4,1.10487 -0.89552,2.00061 -2.0004,2.00039 z m 12.27839,-5.88476 c -0.22978,0.0533 -0.44693,0.065 -0.44693,0.065 h -8.17513 c 0,0 -0.0681,0.005 -0.15459,-0.007 -0.0617,-0.008 -0.0775,-0.0231 -0.11237,-0.0387 -3.84177,-1.70906 -6.49725,-5.54689 -6.49719,-10.04946 -5e-5,-4.16656 2.27318,-7.76487 5.65673,-9.63311 0.032,-0.0177 0.0808,-0.0391 0.11729,-0.0422 l 0.12359,-0.0105 h 10.08701 l 0.2039,0.0177 c 0.0773,0.007 0.19514,0.0566 0.26251,0.0948 3.32397,1.88469 5.54923,5.45103 5.54917,9.5732 6e-5,4.36586 -2.49668,8.10676 -6.15065,9.88797 -0.14862,0.0725 -0.23356,0.0893 -0.46334,0.14258 z"
       style="stroke-width:0.264583" />
  </g>
</svg>
