<?xml version="1.0" encoding="UTF-8" standalone="no"?>
<!-- Created with Inkscape (http://www.inkscape.org/) -->

<svg
   xmlns:dc="http://purl.org/dc/elements/1.1/"
   xmlns:cc="http://creativecommons.org/ns#"
   xmlns:rdf="http://www.w3.org/1999/02/22-rdf-syntax-ns#"
   xmlns:svg="http://www.w3.org/2000/svg"
   xmlns="http://www.w3.org/2000/svg"
   xmlns:sodipodi="http://sodipodi.sourceforge.net/DTD/sodipodi-0.dtd"
   xmlns:inkscape="http://www.inkscape.org/namespaces/inkscape"
   width="210mm"
   height="297mm"
   viewBox="0 0 210 297"
   version="1.1"
   id="svg8"
   inkscape:version="0.92.3 (2405546, 2018-03-11)"
   sodipodi:docname="Di'Po.svg">
  <defs
     id="defs2" />
  <sodipodi:namedview
     id="base"
     pagecolor="#ffffff"
     bordercolor="#666666"
     borderopacity="1.0"
     inkscape:pageopacity="0.0"
     inkscape:pageshadow="2"
     inkscape:zoom="2.8"
     inkscape:cx="15.28457"
     inkscape:cy="606.03605"
     inkscape:document-units="mm"
     inkscape:current-layer="layer1"
     showgrid="false"
     showborder="false"
     inkscape:window-width="1280"
     inkscape:window-height="961"
     inkscape:window-x="0"
     inkscape:window-y="0"
     inkscape:window-maximized="1"
     showguides="true"
     inkscape:guide-bbox="true">
    <sodipodi:guide
       position="143.67584,54.323192"
       orientation="0,1"
       id="guide831"
       inkscape:locked="false" />
  </sodipodi:namedview>
  <metadata
     id="metadata5">
    <rdf:RDF>
      <cc:Work
         rdf:about="">
        <dc:format>image/svg+xml</dc:format>
        <dc:type
           rdf:resource="http://purl.org/dc/dcmitype/StillImage" />
        <dc:title />
        <cc:license
           rdf:resource="http://creativecommons.org/publicdomain/zero/1.0/" />
      </cc:Work>
      <cc:License
         rdf:about="http://creativecommons.org/publicdomain/zero/1.0/">
        <cc:permits
           rdf:resource="http://creativecommons.org/ns#Reproduction" />
        <cc:permits
           rdf:resource="http://creativecommons.org/ns#Distribution" />
        <cc:permits
           rdf:resource="http://creativecommons.org/ns#DerivativeWorks" />
      </cc:License>
    </rdf:RDF>
  </metadata>
  <g
     inkscape:label="Calque 1"
     inkscape:groupmode="layer"
     id="layer1">
    <path
       style="stroke-width:0.99999994"
       d="m -50.521484,509.86133 c -3.629355,0 -6.552735,3.60063 -6.552735,8.07226 v 0.86212 c 0.08557,2.03646 -0.584279,2.89679 -1.994061,4.39937 -1.409782,1.50257 -3.07014,2.18187 -5.360513,2.18187 H -200.04492 c -3.14079,0 -5.73803,2.52988 -5.66992,5.66993 l 0.18945,8.73242 c 0.0258,1.18795 1.95296,4.47383 5.04492,4.54492 2.24501,0.0516 2.83706,-0.13144 5.07031,-0.125 3.03032,0.009 4.50104,1.83507 5.4668,2.57617 1.54994,1.18938 1.55078,4.70899 1.55078,4.70899 v 3.86132 3.71094 38.48633 c 0,6.54774 2.92143,11.81836 6.55078,11.81836 h 13.16211 c 3.62936,0 6.55078,-5.27062 6.55078,-11.81836 v -31.23828 c 0,0 0.50597,-3.02225 0.88477,-4.72266 0.26083,-1.1708 2.4701,-3.81251 3.50391,-4.20117 l 4.70117,-1.76758 h 116.074216 c 0,0 4.277723,-0.0163 8.56836,4.28516 1.898483,1.90328 5.724146,4.76 3.669922,9.80273 -3.031282,7.44123 -4.703232,15.56757 -4.703126,24.06836 -2.72e-4,21.54801 10.737093,40.6993 27.128051,52.36979 1.32850594,0.94459 1.59271888,0.99787 4.3952742,2.04548 2.8025554,1.0476 3.237723,0.89578 5.0715767,0.89195 l 55.1171001,-0.11514 c 1.872208,-0.0549 2.335613,0.0864 4.644842,-0.53543 2.830205,-0.76211 2.954242,-0.87602 4.010591,-1.58472 16.956484,-11.5953 28.134798,-31.0861 28.134519,-53.07193 1.96e-4,-15.43861 -5.513873,-29.64582 -14.667969,-40.75391 0.570014,-0.88487 0.904297,-1.93697 0.904297,-3.07226 v -26.72461 c 0,-3.14079 -2.793781,-6.93625 -5.667969,-5.66992 0,0 -7.568073,4.31808 -11.707031,5.55469 -5.292686,1.5813 -16.416016,2.27343 -16.416016,2.27343 H -14.6875 c 0,0 -0.951076,0.0368 -1.435547,-0.0469 -3.214283,-0.55527 -6.392064,-1.67831 -9.257812,-3.23633 -2.003173,-1.08906 -5.429688,-4.16016 -5.429688,-4.16016 -3.549442,-2.71973 -2.921427,-8.07226 -6.550781,-8.07226 z m 115.171875,23.75586 c 4.17515,2.6e-4 7.559413,3.38539 7.558593,7.56054 -2.51e-4,4.17439 -3.3842,7.55834 -7.558593,7.5586 -4.175156,8.2e-4 -7.560296,-3.38344 -7.560547,-7.5586 -8.2e-4,-4.17591 3.384634,-7.56136 7.560547,-7.56054 z m -46.406529,22.24163 c 0.868468,-0.20138 1.689174,-0.24554 1.689174,-0.24554 h 30.898157 c 0,0 0.25738,-0.0171 0.584264,0.0279 0.233014,0.0321 0.292805,0.0875 0.424704,0.14614 14.520083,6.45946 24.556541,20.96463 24.556323,37.98221 2.01e-4,15.74766 -8.591553,29.34757 -21.379749,36.4086 -0.121089,0.0669 -0.305386,0.14771 -0.443309,0.15936 l -0.467129,0.0395 H 15.982143 l -0.770648,-0.067 c -0.292014,-0.0254 -0.737542,-0.21391 -0.992165,-0.35829 -12.5630349,-7.12323 -20.9734346,-20.60231 -20.9732362,-36.18217 -2.102e-4,-16.50087 9.4362788,-30.6397 23.2465452,-37.37185 0.561737,-0.27384 0.882754,-0.33749 1.751223,-0.53886 z"
       transform="scale(0.26458333)"
       id="rect29"
       inkscape:connector-curvature="0"
       sodipodi:nodetypes="ssczcsccccccccssssccccccscczccscccsscccccccssccccczccsscssccsscsz" />
    <path
       sodipodi:nodetypes="ssczcsccccccccssssccccccscczccscccsscccccccssccccczccsscssccsscsz"
       inkscape:connector-curvature="0"
       id="path10"
       d="m 166.36054,115.43504 c -0.96027,0 -1.73375,0.95266 -1.73375,2.13578 v 0.2281 c 0.0226,0.53882 -0.15459,0.76645 -0.52759,1.164 -0.37301,0.39756 -0.81231,0.57729 -1.41831,0.57729 h -35.88176 c -0.831,0 -1.51819,0.66936 -1.50017,1.50017 l 0.0501,2.31045 c 0.007,0.31431 0.51672,1.1837 1.3348,1.20251 0.59399,0.0137 0.75064,-0.0348 1.34152,-0.0331 0.80177,0.002 1.1909,0.48553 1.44643,0.68161 0.41008,0.31469 0.41031,1.24592 0.41031,1.24592 v 1.02164 0.98185 10.18285 c 0,1.73242 0.77296,3.12694 1.73322,3.12694 h 3.48248 c 0.96027,0 1.73323,-1.39452 1.73323,-3.12694 v -8.26513 c 0,0 0.13387,-0.79964 0.23409,-1.24954 0.069,-0.30977 0.65355,-1.00873 0.92708,-1.11156 l 1.24385,-0.46767 h 30.7113 c 0,0 1.13182,-0.004 2.26705,1.13378 0.5023,0.50358 1.51451,1.25942 0.971,2.59364 -0.80203,1.96883 -1.2444,4.11892 -1.24437,6.36809 -7e-5,5.70124 2.84085,10.76835 7.17763,13.85617 0.3515,0.24992 0.4214,0.26402 1.16291,0.5412 0.74151,0.27718 0.85665,0.23701 1.34186,0.236 l 14.58306,-0.0305 c 0.49535,-0.0145 0.61796,0.0229 1.22894,-0.14166 0.74883,-0.20165 0.78165,-0.23179 1.06114,-0.4193 4.4864,-3.06792 7.444,-8.22486 7.44392,-14.04194 6e-5,-4.0848 -1.45887,-7.84379 -3.8809,-10.78281 0.15082,-0.23412 0.23927,-0.51249 0.23927,-0.81287 v -7.07088 c 0,-0.831 -0.73919,-1.83522 -1.49965,-1.50017 0,0 -2.00239,1.14249 -3.09749,1.46968 -1.40036,0.41838 -4.3434,0.60151 -4.3434,0.60151 h -17.51676 c 0,0 -0.25164,0.01 -0.37982,-0.0124 -0.85045,-0.14691 -1.69123,-0.44405 -2.44946,-0.85628 -0.53001,-0.28814 -1.43661,-1.10071 -1.43661,-1.10071 -0.93912,-0.71959 -0.77296,-2.13578 -1.73323,-2.13578 z m 30.47255,6.2854 c 1.10467,7e-5 2.00009,0.89572 1.99988,2.00039 -7e-5,1.10448 -0.89541,1.99981 -1.99988,1.99988 -1.10468,2.2e-4 -2.00033,-0.8952 -2.0004,-1.99988 -2.1e-4,-1.10487 0.89552,-2.00061 2.0004,-2.00039 z m -12.27839,5.88476 c 0.22978,-0.0533 0.44693,-0.065 0.44693,-0.065 h 8.17513 c 0,0 0.0681,-0.005 0.15459,0.007 0.0617,0.008 0.0775,0.0231 0.11237,0.0387 3.84177,1.70906 6.49725,5.54689 6.49719,10.04946 5e-5,4.16656 -2.27318,7.76487 -5.65673,9.63311 -0.032,0.0177 -0.0808,0.0391 -0.11729,0.0422 l -0.12359,0.0105 h -10.08701 l -0.2039,-0.0177 c -0.0773,-0.007 -0.19514,-0.0566 -0.26251,-0.0948 -3.32397,-1.88469 -5.54923,-5.45103 -5.54917,-9.5732 -6e-5,-4.36586 2.49668,-8.10676 6.15065,-9.88797 0.14862,-0.0725 0.23356,-0.0893 0.46334,-0.14258 z"
       style="stroke-width:0.26458332" />
    <path
       style="stroke-width:0.26458332"
       d="m 177.3518,164.63411 c 0.96027,0 1.73375,-0.95266 1.73375,-2.13578 v -0.2281 c -0.0226,-0.53882 0.15459,-0.76645 0.52759,-1.164 0.37301,-0.39756 0.81231,-0.57729 1.41831,-0.57729 h 35.88176 c 0.831,0 1.51819,-0.66936 1.50017,-1.50017 l -0.0501,-2.31045 c -0.007,-0.31431 -0.51672,-1.1837 -1.3348,-1.20251 -0.59399,-0.0137 -0.75064,0.0348 -1.34152,0.0331 -0.80177,-0.002 -1.1909,-0.48553 -1.44643,-0.68161 -0.41008,-0.31469 -0.41031,-1.24592 -0.41031,-1.24592 v -1.02164 -0.98185 -10.18285 c 0,-1.73242 -0.77296,-3.12694 -1.73322,-3.12694 h -3.48248 c -0.96027,0 -1.73323,1.39452 -1.73323,3.12694 v 8.26513 c 0,0 -0.13387,0.79964 -0.23409,1.24954 -0.069,0.30977 -0.65355,1.00873 -0.92708,1.11156 l -1.24385,0.46767 h -30.7113 c 0,0 -1.13182,0.004 -2.26705,-1.13378 -0.5023,-0.50358 -1.51451,-1.25942 -0.971,-2.59364 0.80203,-1.96883 1.2444,-4.11892 1.24437,-6.36809 7e-5,-5.70124 -2.84085,-10.76835 -7.17763,-13.85617 -0.3515,-0.24992 -0.4214,-0.26402 -1.16291,-0.5412 -0.74151,-0.27718 -0.85665,-0.23701 -1.34186,-0.236 l -14.58306,0.0305 c -0.49535,0.0145 -0.61796,-0.0229 -1.22894,0.14166 -0.74883,0.20165 -0.78165,0.23179 -1.06114,0.4193 -4.4864,3.06792 -7.444,8.22486 -7.44392,14.04194 -6e-5,4.0848 1.45887,7.84379 3.8809,10.78281 -0.15082,0.23412 -0.23927,0.51249 -0.23927,0.81287 v 7.07088 c 0,0.831 0.73919,1.83522 1.49965,1.50017 0,0 2.00239,-1.14249 3.09749,-1.46968 1.40036,-0.41838 4.3434,-0.60151 4.3434,-0.60151 h 17.51676 c 0,0 0.25164,-0.01 0.37982,0.0124 0.85045,0.14691 1.69123,0.44405 2.44946,0.85628 0.53001,0.28814 1.43661,1.10071 1.43661,1.10071 0.93912,0.71959 0.77296,2.13578 1.73323,2.13578 z m -30.47255,-6.2854 c -1.10467,-7e-5 -2.00009,-0.89572 -1.99988,-2.00039 7e-5,-1.10448 0.89541,-1.99981 1.99988,-1.99988 1.10468,-2.2e-4 2.00033,0.8952 2.0004,1.99988 2.1e-4,1.10487 -0.89552,2.00061 -2.0004,2.00039 z m 12.27839,-5.88476 c -0.22978,0.0533 -0.44693,0.065 -0.44693,0.065 h -8.17513 c 0,0 -0.0681,0.005 -0.15459,-0.007 -0.0617,-0.008 -0.0775,-0.0231 -0.11237,-0.0387 -3.84177,-1.70906 -6.49725,-5.54689 -6.49719,-10.04946 -5e-5,-4.16656 2.27318,-7.76487 5.65673,-9.63311 0.032,-0.0177 0.0808,-0.0391 0.11729,-0.0422 l 0.12359,-0.0105 h 10.08701 l 0.2039,0.0177 c 0.0773,0.007 0.19514,0.0566 0.26251,0.0948 3.32397,1.88469 5.54923,5.45103 5.54917,9.5732 6e-5,4.36586 -2.49668,8.10676 -6.15065,9.88797 -0.14862,0.0725 -0.23356,0.0893 -0.46334,0.14258 z"
       id="path12"
       inkscape:connector-curvature="0"
       sodipodi:nodetypes="ssczcsccccccccssssccccccscczccscccsscccccccssccccczccsscssccsscsz" />
    <path
       style="stroke-width:0.26458332"
       d="m 132.68458,193.47774 c -0.96027,0 -1.73375,0.95266 -1.73375,2.13578 v 0.2281 c 0.0226,0.53882 -0.15459,0.76645 -0.52759,1.164 -0.37301,0.39756 -0.81231,0.57729 -1.41831,0.57729 H 93.12317 c -0.831,0 -1.51819,0.66936 -1.50017,1.50017 l 0.0501,2.31045 c 0.007,0.31431 0.51672,1.1837 1.3348,1.20251 0.59399,0.0137 0.75064,-0.0348 1.34152,-0.0331 0.80177,0.002 1.1909,0.48553 1.44643,0.68161 0.41008,0.31469 0.41031,1.24592 0.41031,1.24592 v 1.02164 0.98185 10.18285 c 0,1.73242 0.77296,3.12694 1.73322,3.12694 h 3.48248 c 0.96027,0 1.73323,-1.39452 1.73323,-3.12694 v -8.26513 c 0,0 0.13387,-0.79964 0.23409,-1.24954 0.069,-0.30977 0.65355,-1.00873 0.92708,-1.11156 l 1.24385,-0.46767 h 30.7113 c 0,0 1.13182,-0.004 2.26705,1.13378 0.5023,0.50358 1.51451,1.25942 0.971,2.59364 -0.80203,1.96883 -1.2444,4.11892 -1.24437,6.36809 -7e-5,5.70124 2.84085,10.76835 7.17763,13.85617 0.3515,0.24992 0.4214,0.26402 1.16291,0.5412 0.74151,0.27718 0.85665,0.23701 1.34186,0.236 l 14.58306,-0.0305 c 0.49535,-0.0145 0.61796,0.0229 1.22894,-0.14166 0.74883,-0.20165 0.78165,-0.23179 1.06114,-0.4193 4.4864,-3.06792 7.444,-8.22486 7.44392,-14.04194 6e-5,-4.0848 -1.45887,-7.84379 -3.8809,-10.78281 0.15082,-0.23412 0.23927,-0.51249 0.23927,-0.81287 v -7.07088 c 0,-0.831 -0.73919,-1.83522 -1.49965,-1.50017 0,0 -2.00239,1.14249 -3.09749,1.46968 -1.40036,0.41838 -4.3434,0.60151 -4.3434,0.60151 h -17.51676 c 0,0 -0.25164,0.01 -0.37982,-0.0124 -0.85045,-0.14691 -1.69123,-0.44405 -2.44946,-0.85628 -0.53001,-0.28814 -1.43661,-1.10071 -1.43661,-1.10071 -0.93912,-0.71959 -0.77296,-2.13578 -1.73323,-2.13578 z m 30.47255,6.2854 c 1.10467,7e-5 2.00009,0.89572 1.99988,2.00039 -7e-5,1.10448 -0.89541,1.99981 -1.99988,1.99988 -1.10468,2.2e-4 -2.00033,-0.8952 -2.0004,-1.99988 -2.1e-4,-1.10487 0.89552,-2.00061 2.0004,-2.00039 z m -12.27839,5.88476 c 0.22978,-0.0533 0.44693,-0.065 0.44693,-0.065 h 8.17513 c 0,0 0.0681,-0.005 0.15459,0.007 0.0617,0.008 0.0775,0.0231 0.11237,0.0387 3.84177,1.70906 6.49725,5.54689 6.49719,10.04946 5e-5,4.16656 -2.27318,7.76487 -5.65673,9.63311 -0.032,0.0177 -0.0808,0.0391 -0.11729,0.0422 l -0.12359,0.0105 h -10.08701 l -0.2039,-0.0177 c -0.0773,-0.007 -0.19514,-0.0566 -0.26251,-0.0948 -3.32397,-1.88469 -5.54923,-5.45103 -5.54917,-9.5732 -6e-5,-4.36586 2.49668,-8.10676 6.15065,-9.88797 0.14862,-0.0725 0.23356,-0.0893 0.46334,-0.14258 z"
       id="path815"
       inkscape:connector-curvature="0"
       sodipodi:nodetypes="ssczcsccccccccssssccccccscczccscccsscccccccssccccczccsscssccsscsz" />
    <path
       sodipodi:nodetypes="ssczcsccccccccssssccccccscczccscccsscccccccssccccczccsscssccsscsz"
       inkscape:connector-curvature="0"
       id="path817"
       d="m 143.67584,242.67681 c 0.96027,0 1.73375,-0.95266 1.73375,-2.13578 v -0.2281 c -0.0226,-0.53882 0.15459,-0.76645 0.52759,-1.164 0.37301,-0.39756 0.81231,-0.57729 1.41831,-0.57729 h 35.88176 c 0.831,0 1.51819,-0.66936 1.50017,-1.50017 l -0.0501,-2.31045 c -0.007,-0.31431 -0.51672,-1.1837 -1.3348,-1.20251 -0.59399,-0.0137 -0.75064,0.0348 -1.34152,0.0331 -0.80177,-0.002 -1.1909,-0.48553 -1.44643,-0.68161 -0.41008,-0.31469 -0.41031,-1.24592 -0.41031,-1.24592 v -1.02164 -0.98185 -10.18285 c 0,-1.73242 -0.77296,-3.12694 -1.73322,-3.12694 h -3.48248 c -0.96027,0 -1.73323,1.39452 -1.73323,3.12694 v 8.26513 c 0,0 -0.13387,0.79964 -0.23409,1.24954 -0.069,0.30977 -0.65355,1.00873 -0.92708,1.11156 l -1.24385,0.46767 h -30.7113 c 0,0 -1.13182,0.004 -2.26705,-1.13378 -0.5023,-0.50358 -1.51451,-1.25942 -0.971,-2.59364 0.80203,-1.96883 1.2444,-4.11892 1.24437,-6.36809 7e-5,-5.70124 -2.84085,-10.76835 -7.17763,-13.85617 -0.3515,-0.24992 -0.4214,-0.26402 -1.16291,-0.5412 -0.74151,-0.27718 -0.85665,-0.23701 -1.34186,-0.236 l -14.58306,0.0305 c -0.49535,0.0145 -0.61796,-0.0229 -1.22894,0.14166 -0.74883,0.20165 -0.78165,0.23179 -1.06114,0.4193 -4.4864,3.06792 -7.444,8.22486 -7.44392,14.04194 -6e-5,4.0848 1.45887,7.84379 3.8809,10.78281 -0.15082,0.23412 -0.23927,0.51249 -0.23927,0.81287 v 7.07088 c 0,0.831 0.73919,1.83522 1.49965,1.50017 0,0 2.00239,-1.14249 3.09749,-1.46968 1.40036,-0.41838 4.3434,-0.60151 4.3434,-0.60151 h 17.51676 c 0,0 0.25164,-0.01 0.37982,0.0124 0.85045,0.14691 1.69123,0.44405 2.44946,0.85628 0.53001,0.28814 1.43661,1.10071 1.43661,1.10071 0.93912,0.71959 0.77296,2.13578 1.73323,2.13578 z m -30.47255,-6.2854 c -1.10467,-7e-5 -2.00009,-0.89572 -1.99988,-2.00039 7e-5,-1.10448 0.89541,-1.99981 1.99988,-1.99988 1.10468,-2.2e-4 2.00033,0.8952 2.0004,1.99988 2.1e-4,1.10487 -0.89552,2.00061 -2.0004,2.00039 z m 12.27839,-5.88476 c -0.22978,0.0533 -0.44693,0.065 -0.44693,0.065 h -8.17513 c 0,0 -0.0681,0.005 -0.15459,-0.007 -0.0617,-0.008 -0.0775,-0.0231 -0.11237,-0.0387 -3.84177,-1.70906 -6.49725,-5.54689 -6.49719,-10.04946 -5e-5,-4.16656 2.27318,-7.76487 5.65673,-9.63311 0.032,-0.0177 0.0808,-0.0391 0.11729,-0.0422 l 0.12359,-0.0105 h 10.08701 l 0.2039,0.0177 c 0.0773,0.007 0.19514,0.0566 0.26251,0.0948 3.32397,1.88469 5.54923,5.45103 5.54917,9.5732 6e-5,4.36586 -2.49668,8.10676 -6.15065,9.88797 -0.14862,0.0725 -0.23356,0.0893 -0.46334,0.14258 z"
       style="stroke-width:0.26458332" />
    <path
       sodipodi:nodetypes="ssczcsccccccccssssccccccscczccscccsscccccccssccccczccsscssccsscsz"
       inkscape:connector-curvature="0"
       id="path819"
       d="m 209.9434,189.77355 c -0.96027,0 -1.73375,0.95266 -1.73375,2.13578 v 0.2281 c 0.0226,0.53882 -0.15459,0.76645 -0.52759,1.164 -0.37301,0.39756 -0.81231,0.57729 -1.41831,0.57729 h -35.8818 c -0.83101,0 -1.5182,0.66936 -1.50018,1.50017 l 0.0501,2.31045 c 0.007,0.31431 0.51672,1.1837 1.33481,1.20251 0.59399,0.0137 0.75064,-0.0348 1.34153,-0.0331 0.80177,0.002 1.1909,0.48553 1.44644,0.68161 0.41008,0.31469 0.41031,1.24592 0.41031,1.24592 v 1.02164 0.98185 10.18285 c 0,1.73242 0.77296,3.12694 1.73323,3.12694 h 3.48249 c 0.96027,0 1.73323,-1.39452 1.73323,-3.12694 v -8.26513 c 0,0 0.13387,-0.79964 0.23409,-1.24954 0.069,-0.30977 0.65355,-1.00873 0.92708,-1.11156 l 1.24385,-0.46767 h 30.7113 c 0,0 1.13182,-0.004 2.26705,1.13378 0.5023,0.50358 1.51451,1.25942 0.971,2.59364 -0.80203,1.96883 -1.2444,4.11892 -1.24437,6.36809 -7e-5,5.70124 2.84085,10.76835 7.17763,13.85617 0.3515,0.24992 0.4214,0.26402 1.16291,0.5412 0.74151,0.27718 0.85665,0.23701 1.34186,0.236 l 14.58306,-0.0305 c 0.49535,-0.0145 0.61796,0.0229 1.22894,-0.14166 0.74883,-0.20165 0.78165,-0.23179 1.06114,-0.4193 4.4864,-3.06792 7.444,-8.22486 7.44392,-14.04194 6e-5,-4.0848 -1.45887,-7.84379 -3.8809,-10.78281 0.15082,-0.23412 0.23927,-0.51249 0.23927,-0.81287 v -7.07088 c 0,-0.831 -0.73919,-1.83522 -1.49965,-1.50017 0,0 -2.00239,1.14249 -3.09749,1.46968 -1.40036,0.41838 -4.3434,0.60151 -4.3434,0.60151 h -17.51676 c 0,0 -0.25164,0.01 -0.37982,-0.0124 -0.85045,-0.14691 -1.69123,-0.44405 -2.44946,-0.85628 -0.53001,-0.28814 -1.43661,-1.10071 -1.43661,-1.10071 -0.93912,-0.71959 -0.77296,-2.13578 -1.73323,-2.13578 z m 30.47255,6.2854 c 1.10467,7e-5 2.00009,0.89572 1.99988,2.00039 -7e-5,1.10448 -0.89541,1.99981 -1.99988,1.99988 -1.10468,2.2e-4 -2.00033,-0.8952 -2.0004,-1.99988 -2.1e-4,-1.10487 0.89552,-2.00061 2.0004,-2.00039 z m -12.27839,5.88476 c 0.22978,-0.0533 0.44693,-0.065 0.44693,-0.065 h 8.17513 c 0,0 0.0681,-0.005 0.15459,0.007 0.0617,0.008 0.0775,0.0231 0.11237,0.0387 3.84177,1.70906 6.49725,5.54689 6.49719,10.04946 5e-5,4.16656 -2.27318,7.76487 -5.65673,9.63311 -0.032,0.0177 -0.0808,0.0391 -0.11729,0.0422 l -0.12359,0.0105 h -10.08701 l -0.2039,-0.0177 c -0.0773,-0.007 -0.19514,-0.0566 -0.26251,-0.0948 -3.32397,-1.88469 -5.54923,-5.45103 -5.54917,-9.5732 -6e-5,-4.36586 2.49668,-8.10676 6.15065,-9.88797 0.14862,-0.0725 0.23356,-0.0893 0.46334,-0.14258 z"
       style="stroke-width:0.26458332" />
    <path
       style="stroke-width:0.26458332"
       d="m 220.93466,238.97262 c 0.96027,0 1.73375,-0.95266 1.73375,-2.13578 v -0.2281 c -0.0226,-0.53882 0.15459,-0.76645 0.52759,-1.164 0.37301,-0.39756 0.81231,-0.57729 1.41831,-0.57729 h 35.88176 c 0.831,0 1.51819,-0.66936 1.50017,-1.50017 l -0.0501,-2.31045 c -0.007,-0.31431 -0.51672,-1.1837 -1.3348,-1.20251 -0.59399,-0.0137 -0.75064,0.0348 -1.34152,0.0331 -0.80177,-0.002 -1.1909,-0.48553 -1.44643,-0.68161 -0.41008,-0.31469 -0.41031,-1.24592 -0.41031,-1.24592 v -1.02164 -0.98185 -10.18285 c 0,-1.73242 -0.77296,-3.12694 -1.73322,-3.12694 h -3.48248 c -0.96027,0 -1.73323,1.39452 -1.73323,3.12694 v 8.26513 c 0,0 -0.13387,0.79964 -0.23409,1.24954 -0.069,0.30977 -0.65355,1.00873 -0.92708,1.11156 l -1.24385,0.46767 h -30.7113 c 0,0 -1.13182,0.004 -2.26705,-1.13378 -0.5023,-0.50358 -1.51451,-1.25942 -0.971,-2.59364 0.80203,-1.96883 1.2444,-4.11892 1.24437,-6.36809 7e-5,-5.70124 -2.84085,-10.76835 -7.17763,-13.85617 -0.3515,-0.24992 -0.4214,-0.26402 -1.16291,-0.5412 -0.74151,-0.27718 -0.85665,-0.23701 -1.34186,-0.236 l -14.58306,0.0305 c -0.49535,0.0145 -0.61796,-0.0229 -1.22894,0.14166 -0.74883,0.20165 -0.78165,0.23179 -1.06114,0.4193 -4.4864,3.06792 -7.444,8.22486 -7.44392,14.04194 -6e-5,4.0848 1.45887,7.84379 3.8809,10.78281 -0.15082,0.23412 -0.23927,0.51249 -0.23927,0.81287 v 7.07088 c 0,0.831 0.73919,1.83522 1.49965,1.50017 0,0 2.00239,-1.14249 3.09749,-1.46968 1.40036,-0.41838 4.3434,-0.60151 4.3434,-0.60151 h 17.51676 c 0,0 0.25164,-0.01 0.37982,0.0124 0.85045,0.14691 1.69123,0.44405 2.44946,0.85628 0.53001,0.28814 1.43661,1.10071 1.43661,1.10071 0.93912,0.71959 0.77296,2.13578 1.73323,2.13578 z m -30.47255,-6.2854 c -1.10467,-7e-5 -2.00009,-0.89572 -1.99988,-2.00039 7e-5,-1.10448 0.89541,-1.99981 1.99988,-1.99988 1.10468,-2.2e-4 2.00033,0.8952 2.0004,1.99988 2.1e-4,1.10487 -0.89552,2.00061 -2.0004,2.00039 z m 12.27839,-5.88476 c -0.22978,0.0533 -0.44693,0.065 -0.44693,0.065 h -8.17513 c 0,0 -0.0681,0.005 -0.15459,-0.007 -0.0617,-0.008 -0.0775,-0.0231 -0.11237,-0.0387 -3.84177,-1.70906 -6.49725,-5.54689 -6.49719,-10.04946 -5e-5,-4.16656 2.27318,-7.76487 5.65673,-9.63311 0.032,-0.0177 0.0808,-0.0391 0.11729,-0.0422 l 0.12359,-0.0105 h 10.08701 l 0.2039,0.0177 c 0.0773,0.007 0.19514,0.0566 0.26251,0.0948 3.32397,1.88469 5.54923,5.45103 5.54917,9.5732 6e-5,4.36586 -2.49668,8.10676 -6.15065,9.88797 -0.14862,0.0725 -0.23356,0.0893 -0.46334,0.14258 z"
       id="path821"
       inkscape:connector-curvature="0"
       sodipodi:nodetypes="ssczcsccccccccssssccccccscczccscccsscccccccssccccczccsscssccsscsz" />
    <path
       sodipodi:nodetypes="ssczcsccccccccssssccccccscczccscccsscccccccssccccczccsscssccsscsz"
       inkscape:connector-curvature="0"
       id="path823"
       d="m 293.9887,193.47774 c -0.96027,0 -1.73375,0.95266 -1.73375,2.13578 v 0.2281 c 0.0226,0.53882 -0.15459,0.76645 -0.52759,1.164 -0.37301,0.39756 -0.81231,0.57729 -1.41831,0.57729 h -35.88176 c -0.831,0 -1.51819,0.66936 -1.50017,1.50017 l 0.0501,2.31045 c 0.007,0.31431 0.51672,1.1837 1.3348,1.20251 0.59399,0.0137 0.75064,-0.0348 1.34152,-0.0331 0.80177,0.002 1.1909,0.48553 1.44643,0.68161 0.41008,0.31469 0.41031,1.24592 0.41031,1.24592 v 1.02164 0.98185 10.18285 c 0,1.73242 0.77296,3.12694 1.73322,3.12694 h 3.48248 c 0.96027,0 1.73323,-1.39452 1.73323,-3.12694 v -8.26513 c 0,0 0.13387,-0.79964 0.23409,-1.24954 0.069,-0.30977 0.65355,-1.00873 0.92708,-1.11156 l 1.24385,-0.46767 h 30.7113 c 0,0 1.13182,-0.004 2.26705,1.13378 0.5023,0.50358 1.51451,1.25942 0.971,2.59364 -0.80203,1.96883 -1.2444,4.11892 -1.24437,6.36809 -7e-5,5.70124 2.84085,10.76835 7.17763,13.85617 0.3515,0.24992 0.4214,0.26402 1.16291,0.5412 0.74151,0.27718 0.85665,0.23701 1.34186,0.236 l 14.58306,-0.0305 c 0.49535,-0.0145 0.61796,0.0229 1.22894,-0.14166 0.74883,-0.20165 0.78165,-0.23179 1.06114,-0.4193 4.4864,-3.06792 7.444,-8.22486 7.44392,-14.04194 6e-5,-4.0848 -1.45887,-7.84379 -3.8809,-10.78281 0.15082,-0.23412 0.23927,-0.51249 0.23927,-0.81287 v -7.07088 c 0,-0.831 -0.73919,-1.83522 -1.49965,-1.50017 0,0 -2.00239,1.14249 -3.09749,1.46968 -1.40036,0.41838 -4.3434,0.60151 -4.3434,0.60151 h -17.51676 c 0,0 -0.25164,0.01 -0.37982,-0.0124 -0.85045,-0.14691 -1.69123,-0.44405 -2.44946,-0.85628 -0.53001,-0.28814 -1.43661,-1.10071 -1.43661,-1.10071 -0.93912,-0.71959 -0.77296,-2.13578 -1.73323,-2.13578 z m 30.47255,6.2854 c 1.10467,7e-5 2.00009,0.89572 1.99988,2.00039 -7e-5,1.10448 -0.89541,1.99981 -1.99988,1.99988 -1.10468,2.2e-4 -2.00033,-0.8952 -2.0004,-1.99988 -2.1e-4,-1.10487 0.89552,-2.00061 2.0004,-2.00039 z m -12.27839,5.88476 c 0.22978,-0.0533 0.44693,-0.065 0.44693,-0.065 h 8.17513 c 0,0 0.0681,-0.005 0.15459,0.007 0.0617,0.008 0.0775,0.0231 0.11237,0.0387 3.84177,1.70906 6.49725,5.54689 6.49719,10.04946 5e-5,4.16656 -2.27318,7.76487 -5.65673,9.63311 -0.032,0.0177 -0.0808,0.0391 -0.11729,0.0422 l -0.12359,0.0105 h -10.08701 l -0.2039,-0.0177 c -0.0773,-0.007 -0.19514,-0.0566 -0.26251,-0.0948 -3.32397,-1.88469 -5.54923,-5.45103 -5.54917,-9.5732 -6e-5,-4.36586 2.49668,-8.10676 6.15065,-9.88797 0.14862,-0.0725 0.23356,-0.0893 0.46334,-0.14258 z"
       style="stroke-width:0.26458332" />
    <path
       style="stroke-width:0.26458332"
       d="m 304.97996,242.67681 c 0.96027,0 1.73375,-0.95266 1.73375,-2.13578 v -0.2281 c -0.0226,-0.53882 0.15459,-0.76645 0.52759,-1.164 0.37301,-0.39756 0.81231,-0.57729 1.41831,-0.57729 h 35.88176 c 0.831,0 1.51819,-0.66936 1.50017,-1.50017 l -0.0501,-2.31045 c -0.007,-0.31431 -0.51672,-1.1837 -1.3348,-1.20251 -0.59399,-0.0137 -0.75064,0.0348 -1.34152,0.0331 -0.80177,-0.002 -1.1909,-0.48553 -1.44643,-0.68161 -0.41008,-0.31469 -0.41031,-1.24592 -0.41031,-1.24592 v -1.02164 -0.98185 -10.18285 c 0,-1.73242 -0.77296,-3.12694 -1.73322,-3.12694 h -3.48248 c -0.96027,0 -1.73323,1.39452 -1.73323,3.12694 v 8.26513 c 0,0 -0.13387,0.79964 -0.23409,1.24954 -0.069,0.30977 -0.65355,1.00873 -0.92708,1.11156 l -1.24385,0.46767 h -30.7113 c 0,0 -1.13182,0.004 -2.26705,-1.13378 -0.5023,-0.50358 -1.51451,-1.25942 -0.971,-2.59364 0.80203,-1.96883 1.2444,-4.11892 1.24437,-6.36809 7e-5,-5.70124 -2.84085,-10.76835 -7.17763,-13.85617 -0.3515,-0.24992 -0.4214,-0.26402 -1.16291,-0.5412 -0.74151,-0.27718 -0.85665,-0.23701 -1.34186,-0.236 l -14.58306,0.0305 c -0.49535,0.0145 -0.61796,-0.0229 -1.22894,0.14166 -0.74883,0.20165 -0.78165,0.23179 -1.06114,0.4193 -4.4864,3.06792 -7.444,8.22486 -7.44392,14.04194 -6e-5,4.0848 1.45887,7.84379 3.8809,10.78281 -0.15082,0.23412 -0.23927,0.51249 -0.23927,0.81287 v 7.07088 c 0,0.831 0.73919,1.83522 1.49965,1.50017 0,0 2.00239,-1.14249 3.09749,-1.46968 1.40036,-0.41838 4.3434,-0.60151 4.3434,-0.60151 h 17.51676 c 0,0 0.25164,-0.01 0.37982,0.0124 0.85045,0.14691 1.69123,0.44405 2.44946,0.85628 0.53001,0.28814 1.43661,1.10071 1.43661,1.10071 0.93912,0.71959 0.77296,2.13578 1.73323,2.13578 z m -30.47255,-6.2854 c -1.10467,-7e-5 -2.00009,-0.89572 -1.99988,-2.00039 7e-5,-1.10448 0.89541,-1.99981 1.99988,-1.99988 1.10468,-2.2e-4 2.00033,0.8952 2.0004,1.99988 2.1e-4,1.10487 -0.89552,2.00061 -2.0004,2.00039 z m 12.27839,-5.88476 c -0.22978,0.0533 -0.44693,0.065 -0.44693,0.065 h -8.17513 c 0,0 -0.0681,0.005 -0.15459,-0.007 -0.0617,-0.008 -0.0775,-0.0231 -0.11237,-0.0387 -3.84177,-1.70906 -6.49725,-5.54689 -6.49719,-10.04946 -5e-5,-4.16656 2.27318,-7.76487 5.65673,-9.63311 0.032,-0.0177 0.0808,-0.0391 0.11729,-0.0422 l 0.12359,-0.0105 h 10.08701 l 0.2039,0.0177 c 0.0773,0.007 0.19514,0.0566 0.26251,0.0948 3.32397,1.88469 5.54923,5.45103 5.54917,9.5732 6e-5,4.36586 -2.49668,8.10676 -6.15065,9.88797 -0.14862,0.0725 -0.23356,0.0893 -0.46334,0.14258 z"
       id="path825"
       inkscape:connector-curvature="0"
       sodipodi:nodetypes="ssczcsccccccccssssccccccscczccscccsscccccccssccccczccsscssccsscsz" />
    <path
       style="stroke-width:0.26458332"
       d="m 371.24752,189.77355 c -0.96027,0 -1.73375,0.95266 -1.73375,2.13578 v 0.2281 c 0.0226,0.53882 -0.15459,0.76645 -0.52759,1.164 -0.37301,0.39756 -0.81231,0.57729 -1.41831,0.57729 h -35.8818 c -0.83101,0 -1.5182,0.66936 -1.50018,1.50017 l 0.0501,2.31045 c 0.007,0.31431 0.51672,1.1837 1.33481,1.20251 0.59399,0.0137 0.75064,-0.0348 1.34153,-0.0331 0.80177,0.002 1.1909,0.48553 1.44644,0.68161 0.41008,0.31469 0.41031,1.24592 0.41031,1.24592 v 1.02164 0.98185 10.18285 c 0,1.73242 0.77296,3.12694 1.73323,3.12694 h 3.48249 c 0.96027,0 1.73323,-1.39452 1.73323,-3.12694 v -8.26513 c 0,0 0.13387,-0.79964 0.23409,-1.24954 0.069,-0.30977 0.65355,-1.00873 0.92708,-1.11156 l 1.24385,-0.46767 h 30.7113 c 0,0 1.13182,-0.004 2.26705,1.13378 0.5023,0.50358 1.51451,1.25942 0.971,2.59364 -0.80203,1.96883 -1.2444,4.11892 -1.24437,6.36809 -7e-5,5.70124 2.84085,10.76835 7.17763,13.85617 0.3515,0.24992 0.4214,0.26402 1.16291,0.5412 0.74151,0.27718 0.85665,0.23701 1.34186,0.236 l 14.58306,-0.0305 c 0.49535,-0.0145 0.61796,0.0229 1.22894,-0.14166 0.74883,-0.20165 0.78165,-0.23179 1.06114,-0.4193 4.4864,-3.06792 7.444,-8.22486 7.44392,-14.04194 6e-5,-4.0848 -1.45887,-7.84379 -3.8809,-10.78281 0.15082,-0.23412 0.23927,-0.51249 0.23927,-0.81287 v -7.07088 c 0,-0.831 -0.73919,-1.83522 -1.49965,-1.50017 0,0 -2.00239,1.14249 -3.09749,1.46968 -1.40036,0.41838 -4.3434,0.60151 -4.3434,0.60151 h -17.51676 c 0,0 -0.25164,0.01 -0.37982,-0.0124 -0.85045,-0.14691 -1.69123,-0.44405 -2.44946,-0.85628 -0.53001,-0.28814 -1.43661,-1.10071 -1.43661,-1.10071 -0.93912,-0.71959 -0.77296,-2.13578 -1.73323,-2.13578 z m 30.47255,6.2854 c 1.10467,7e-5 2.00009,0.89572 1.99988,2.00039 -7e-5,1.10448 -0.89541,1.99981 -1.99988,1.99988 -1.10468,2.2e-4 -2.00033,-0.8952 -2.0004,-1.99988 -2.1e-4,-1.10487 0.89552,-2.00061 2.0004,-2.00039 z m -12.27839,5.88476 c 0.22978,-0.0533 0.44693,-0.065 0.44693,-0.065 h 8.17513 c 0,0 0.0681,-0.005 0.15459,0.007 0.0617,0.008 0.0775,0.0231 0.11237,0.0387 3.84177,1.70906 6.49725,5.54689 6.49719,10.04946 5e-5,4.16656 -2.27318,7.76487 -5.65673,9.63311 -0.032,0.0177 -0.0808,0.0391 -0.11729,0.0422 l -0.12359,0.0105 h -10.08701 l -0.2039,-0.0177 c -0.0773,-0.007 -0.19514,-0.0566 -0.26251,-0.0948 -3.32397,-1.88469 -5.54923,-5.45103 -5.54917,-9.5732 -6e-5,-4.36586 2.49668,-8.10676 6.15065,-9.88797 0.14862,-0.0725 0.23356,-0.0893 0.46334,-0.14258 z"
       id="path827"
       inkscape:connector-curvature="0"
       sodipodi:nodetypes="ssczcsccccccccssssccccccscczccscccsscccccccssccccczccsscssccsscsz" />
    <path
       sodipodi:nodetypes="ssczcsccccccccssssccccccscczccscccsscccccccssccccczccsscssccsscsz"
       inkscape:connector-curvature="0"
       id="path829"
       d="m 382.23878,238.97262 c 0.96027,0 1.73375,-0.95266 1.73375,-2.13578 v -0.2281 c -0.0226,-0.53882 0.15459,-0.76645 0.52759,-1.164 0.37301,-0.39756 0.81231,-0.57729 1.41831,-0.57729 h 35.88176 c 0.831,0 1.51819,-0.66936 1.50017,-1.50017 l -0.0501,-2.31045 c -0.007,-0.31431 -0.51672,-1.1837 -1.3348,-1.20251 -0.59399,-0.0137 -0.75064,0.0348 -1.34152,0.0331 -0.80177,-0.002 -1.1909,-0.48553 -1.44643,-0.68161 -0.41008,-0.31469 -0.41031,-1.24592 -0.41031,-1.24592 v -1.02164 -0.98185 -10.18285 c 0,-1.73242 -0.77296,-3.12694 -1.73322,-3.12694 h -3.48248 c -0.96027,0 -1.73323,1.39452 -1.73323,3.12694 v 8.26513 c 0,0 -0.13387,0.79964 -0.23409,1.24954 -0.069,0.30977 -0.65355,1.00873 -0.92708,1.11156 l -1.24385,0.46767 h -30.7113 c 0,0 -1.13182,0.004 -2.26705,-1.13378 -0.5023,-0.50358 -1.51451,-1.25942 -0.971,-2.59364 0.80203,-1.96883 1.2444,-4.11892 1.24437,-6.36809 7e-5,-5.70124 -2.84085,-10.76835 -7.17763,-13.85617 -0.3515,-0.24992 -0.4214,-0.26402 -1.16291,-0.5412 -0.74151,-0.27718 -0.85665,-0.23701 -1.34186,-0.236 l -14.58306,0.0305 c -0.49535,0.0145 -0.61796,-0.0229 -1.22894,0.14166 -0.74883,0.20165 -0.78165,0.23179 -1.06114,0.4193 -4.4864,3.06792 -7.444,8.22486 -7.44392,14.04194 -6e-5,4.0848 1.45887,7.84379 3.8809,10.78281 -0.15082,0.23412 -0.23927,0.51249 -0.23927,0.81287 v 7.07088 c 0,0.831 0.73919,1.83522 1.49965,1.50017 0,0 2.00239,-1.14249 3.09749,-1.46968 1.40036,-0.41838 4.3434,-0.60151 4.3434,-0.60151 h 17.51676 c 0,0 0.25164,-0.01 0.37982,0.0124 0.85045,0.14691 1.69123,0.44405 2.44946,0.85628 0.53001,0.28814 1.43661,1.10071 1.43661,1.10071 0.93912,0.71959 0.77296,2.13578 1.73323,2.13578 z m -30.47255,-6.2854 c -1.10467,-7e-5 -2.00009,-0.89572 -1.99988,-2.00039 7e-5,-1.10448 0.89541,-1.99981 1.99988,-1.99988 1.10468,-2.2e-4 2.00033,0.8952 2.0004,1.99988 2.1e-4,1.10487 -0.89552,2.00061 -2.0004,2.00039 z m 12.27839,-5.88476 c -0.22978,0.0533 -0.44693,0.065 -0.44693,0.065 h -8.17513 c 0,0 -0.0681,0.005 -0.15459,-0.007 -0.0617,-0.008 -0.0775,-0.0231 -0.11237,-0.0387 -3.84177,-1.70906 -6.49725,-5.54689 -6.49719,-10.04946 -5e-5,-4.16656 2.27318,-7.76487 5.65673,-9.63311 0.032,-0.0177 0.0808,-0.0391 0.11729,-0.0422 l 0.12359,-0.0105 h 10.08701 l 0.2039,0.0177 c 0.0773,0.007 0.19514,0.0566 0.26251,0.0948 3.32397,1.88469 5.54923,5.45103 5.54917,9.5732 6e-5,4.36586 -2.49668,8.10676 -6.15065,9.88797 -0.14862,0.0725 -0.23356,0.0893 -0.46334,0.14258 z"
       style="stroke-width:0.26458332" />
    <path
       sodipodi:nodetypes="ssczcsccccccccssssccccccscczccscccsscccccccssccccczccsscssccsscsz"
       inkscape:connector-curvature="0"
       id="path833"
       d="m 455.62139,193.47774 c -0.96027,0 -1.73375,0.95266 -1.73375,2.13578 v 0.2281 c 0.0226,0.53882 -0.15459,0.76645 -0.52759,1.164 -0.37301,0.39756 -0.81231,0.57729 -1.41831,0.57729 h -35.88176 c -0.831,0 -1.51819,0.66936 -1.50017,1.50017 l 0.0501,2.31045 c 0.007,0.31431 0.51672,1.1837 1.3348,1.20251 0.59399,0.0137 0.75064,-0.0348 1.34152,-0.0331 0.80177,0.002 1.1909,0.48553 1.44643,0.68161 0.41008,0.31469 0.41031,1.24592 0.41031,1.24592 v 1.02164 0.98185 10.18285 c 0,1.73242 0.77296,3.12694 1.73322,3.12694 h 3.48248 c 0.96027,0 1.73323,-1.39452 1.73323,-3.12694 v -8.26513 c 0,0 0.13387,-0.79964 0.23409,-1.24954 0.069,-0.30977 0.65355,-1.00873 0.92708,-1.11156 l 1.24385,-0.46767 h 30.7113 c 0,0 1.13182,-0.004 2.26705,1.13378 0.5023,0.50358 1.51451,1.25942 0.971,2.59364 -0.80203,1.96883 -1.2444,4.11892 -1.24437,6.36809 -7e-5,5.70124 2.84085,10.76835 7.17763,13.85617 0.3515,0.24992 0.4214,0.26402 1.16291,0.5412 0.74151,0.27718 0.85665,0.23701 1.34186,0.236 l 14.58306,-0.0305 c 0.49535,-0.0145 0.61796,0.0229 1.22894,-0.14166 0.74883,-0.20165 0.78165,-0.23179 1.06114,-0.4193 4.4864,-3.06792 7.444,-8.22486 7.44392,-14.04194 6e-5,-4.0848 -1.45887,-7.84379 -3.8809,-10.78281 0.15082,-0.23412 0.23927,-0.51249 0.23927,-0.81287 v -7.07088 c 0,-0.831 -0.73919,-1.83522 -1.49965,-1.50017 0,0 -2.00239,1.14249 -3.09749,1.46968 -1.40036,0.41838 -4.3434,0.60151 -4.3434,0.60151 h -17.51676 c 0,0 -0.25164,0.01 -0.37982,-0.0124 -0.85045,-0.14691 -1.69123,-0.44405 -2.44946,-0.85628 -0.53001,-0.28814 -1.43661,-1.10071 -1.43661,-1.10071 -0.93912,-0.71959 -0.77296,-2.13578 -1.73323,-2.13578 z m 30.47255,6.2854 c 1.10467,7e-5 2.00009,0.89572 1.99988,2.00039 -7e-5,1.10448 -0.89541,1.99981 -1.99988,1.99988 -1.10468,2.2e-4 -2.00033,-0.8952 -2.0004,-1.99988 -2.1e-4,-1.10487 0.89552,-2.00061 2.0004,-2.00039 z m -12.27839,5.88476 c 0.22978,-0.0533 0.44693,-0.065 0.44693,-0.065 h 8.17513 c 0,0 0.0681,-0.005 0.15459,0.007 0.0617,0.008 0.0775,0.0231 0.11237,0.0387 3.84177,1.70906 6.49725,5.54689 6.49719,10.04946 5e-5,4.16656 -2.27318,7.76487 -5.65673,9.63311 -0.032,0.0177 -0.0808,0.0391 -0.11729,0.0422 l -0.12359,0.0105 h -10.08701 l -0.2039,-0.0177 c -0.0773,-0.007 -0.19514,-0.0566 -0.26251,-0.0948 -3.32397,-1.88469 -5.54923,-5.45103 -5.54917,-9.5732 -6e-5,-4.36586 2.49668,-8.10676 6.15065,-9.88797 0.14862,-0.0725 0.23356,-0.0893 0.46334,-0.14258 z"
       style="stroke-width:0.26458332" />
    <path
       style="stroke-width:0.26458332"
       d="m 466.61265,242.67681 c 0.96027,0 1.73375,-0.95266 1.73375,-2.13578 v -0.2281 c -0.0226,-0.53882 0.15459,-0.76645 0.52759,-1.164 0.37301,-0.39756 0.81231,-0.57729 1.41831,-0.57729 h 35.88176 c 0.831,0 1.51819,-0.66936 1.50017,-1.50017 l -0.0501,-2.31045 c -0.007,-0.31431 -0.51672,-1.1837 -1.3348,-1.20251 -0.59399,-0.0137 -0.75064,0.0348 -1.34152,0.0331 -0.80177,-0.002 -1.1909,-0.48553 -1.44643,-0.68161 -0.41008,-0.31469 -0.41031,-1.24592 -0.41031,-1.24592 v -1.02164 -0.98185 -10.18285 c 0,-1.73242 -0.77296,-3.12694 -1.73322,-3.12694 h -3.48248 c -0.96027,0 -1.73323,1.39452 -1.73323,3.12694 v 8.26513 c 0,0 -0.13387,0.79964 -0.23409,1.24954 -0.069,0.30977 -0.65355,1.00873 -0.92708,1.11156 l -1.24385,0.46767 h -30.7113 c 0,0 -1.13182,0.004 -2.26705,-1.13378 -0.5023,-0.50358 -1.51451,-1.25942 -0.971,-2.59364 0.80203,-1.96883 1.2444,-4.11892 1.24437,-6.36809 7e-5,-5.70124 -2.84085,-10.76835 -7.17763,-13.85617 -0.3515,-0.24992 -0.4214,-0.26402 -1.16291,-0.5412 -0.74151,-0.27718 -0.85665,-0.23701 -1.34186,-0.236 l -14.58306,0.0305 c -0.49535,0.0145 -0.61796,-0.0229 -1.22894,0.14166 -0.74883,0.20165 -0.78165,0.23179 -1.06114,0.4193 -4.4864,3.06792 -7.444,8.22486 -7.44392,14.04194 -6e-5,4.0848 1.45887,7.84379 3.8809,10.78281 -0.15082,0.23412 -0.23927,0.51249 -0.23927,0.81287 v 7.07088 c 0,0.831 0.73919,1.83522 1.49965,1.50017 0,0 2.00239,-1.14249 3.09749,-1.46968 1.40036,-0.41838 4.3434,-0.60151 4.3434,-0.60151 h 17.51676 c 0,0 0.25164,-0.01 0.37982,0.0124 0.85045,0.14691 1.69123,0.44405 2.44946,0.85628 0.53001,0.28814 1.43661,1.10071 1.43661,1.10071 0.93912,0.71959 0.77296,2.13578 1.73323,2.13578 z m -30.47255,-6.2854 c -1.10467,-7e-5 -2.00009,-0.89572 -1.99988,-2.00039 7e-5,-1.10448 0.89541,-1.99981 1.99988,-1.99988 1.10468,-2.2e-4 2.00033,0.8952 2.0004,1.99988 2.1e-4,1.10487 -0.89552,2.00061 -2.0004,2.00039 z m 12.27839,-5.88476 c -0.22978,0.0533 -0.44693,0.065 -0.44693,0.065 h -8.17513 c 0,0 -0.0681,0.005 -0.15459,-0.007 -0.0617,-0.008 -0.0775,-0.0231 -0.11237,-0.0387 -3.84177,-1.70906 -6.49725,-5.54689 -6.49719,-10.04946 -5e-5,-4.16656 2.27318,-7.76487 5.65673,-9.63311 0.032,-0.0177 0.0808,-0.0391 0.11729,-0.0422 l 0.12359,-0.0105 h 10.08701 l 0.2039,0.0177 c 0.0773,0.007 0.19514,0.0566 0.26251,0.0948 3.32397,1.88469 5.54923,5.45103 5.54917,9.5732 6e-5,4.36586 -2.49668,8.10676 -6.15065,9.88797 -0.14862,0.0725 -0.23356,0.0893 -0.46334,0.14258 z"
       id="path835"
       inkscape:connector-curvature="0"
       sodipodi:nodetypes="ssczcsccccccccssssccccccscczccscccsscccccccssccccczccsscssccsscsz" />
    <path
       style="stroke-width:0.26458332"
       d="m 532.88021,189.77355 c -0.96027,0 -1.73375,0.95266 -1.73375,2.13578 v 0.2281 c 0.0226,0.53882 -0.15459,0.76645 -0.52759,1.164 -0.37301,0.39756 -0.81231,0.57729 -1.41831,0.57729 h -35.8818 c -0.83101,0 -1.5182,0.66936 -1.50018,1.50017 l 0.0501,2.31045 c 0.007,0.31431 0.51672,1.1837 1.33481,1.20251 0.59399,0.0137 0.75064,-0.0348 1.34153,-0.0331 0.80177,0.002 1.1909,0.48553 1.44644,0.68161 0.41008,0.31469 0.41031,1.24592 0.41031,1.24592 v 1.02164 0.98185 10.18285 c 0,1.73242 0.77296,3.12694 1.73323,3.12694 h 3.48249 c 0.96027,0 1.73323,-1.39452 1.73323,-3.12694 v -8.26513 c 0,0 0.13387,-0.79964 0.23409,-1.24954 0.069,-0.30977 0.65355,-1.00873 0.92708,-1.11156 l 1.24385,-0.46767 h 30.7113 c 0,0 1.13182,-0.004 2.26705,1.13378 0.5023,0.50358 1.51451,1.25942 0.971,2.59364 -0.80203,1.96883 -1.2444,4.11892 -1.24437,6.36809 -7e-5,5.70124 2.84085,10.76835 7.17763,13.85617 0.3515,0.24992 0.4214,0.26402 1.16291,0.5412 0.74151,0.27718 0.85665,0.23701 1.34186,0.236 l 14.58306,-0.0305 c 0.49535,-0.0145 0.61796,0.0229 1.22894,-0.14166 0.74883,-0.20165 0.78165,-0.23179 1.06114,-0.4193 4.4864,-3.06792 7.444,-8.22486 7.44392,-14.04194 6e-5,-4.0848 -1.45887,-7.84379 -3.8809,-10.78281 0.15082,-0.23412 0.23927,-0.51249 0.23927,-0.81287 v -7.07088 c 0,-0.831 -0.73919,-1.83522 -1.49965,-1.50017 0,0 -2.00239,1.14249 -3.09749,1.46968 -1.40036,0.41838 -4.3434,0.60151 -4.3434,0.60151 h -17.51676 c 0,0 -0.25164,0.01 -0.37982,-0.0124 -0.85045,-0.14691 -1.69123,-0.44405 -2.44946,-0.85628 -0.53001,-0.28814 -1.43661,-1.10071 -1.43661,-1.10071 -0.93912,-0.71959 -0.77296,-2.13578 -1.73323,-2.13578 z m 30.47255,6.2854 c 1.10467,7e-5 2.00009,0.89572 1.99988,2.00039 -7e-5,1.10448 -0.89541,1.99981 -1.99988,1.99988 -1.10468,2.2e-4 -2.00033,-0.8952 -2.0004,-1.99988 -2.1e-4,-1.10487 0.89552,-2.00061 2.0004,-2.00039 z m -12.27839,5.88476 c 0.22978,-0.0533 0.44693,-0.065 0.44693,-0.065 h 8.17513 c 0,0 0.0681,-0.005 0.15459,0.007 0.0617,0.008 0.0775,0.0231 0.11237,0.0387 3.84177,1.70906 6.49725,5.54689 6.49719,10.04946 5e-5,4.16656 -2.27318,7.76487 -5.65673,9.63311 -0.032,0.0177 -0.0808,0.0391 -0.11729,0.0422 l -0.12359,0.0105 h -10.08701 l -0.2039,-0.0177 c -0.0773,-0.007 -0.19514,-0.0566 -0.26251,-0.0948 -3.32397,-1.88469 -5.54923,-5.45103 -5.54917,-9.5732 -6e-5,-4.36586 2.49668,-8.10676 6.15065,-9.88797 0.14862,-0.0725 0.23356,-0.0893 0.46334,-0.14258 z"
       id="path837"
       inkscape:connector-curvature="0"
       sodipodi:nodetypes="ssczcsccccccccssssccccccscczccscccsscccccccssccccczccsscssccsscsz" />
    <path
       sodipodi:nodetypes="ssczcsccccccccssssccccccscczccscccsscccccccssccccczccsscssccsscsz"
       inkscape:connector-curvature="0"
       id="path839"
       d="m 543.87147,238.97262 c 0.96027,0 1.73375,-0.95266 1.73375,-2.13578 v -0.2281 c -0.0226,-0.53882 0.15459,-0.76645 0.52759,-1.164 0.37301,-0.39756 0.81231,-0.57729 1.41831,-0.57729 h 35.88176 c 0.831,0 1.51819,-0.66936 1.50017,-1.50017 l -0.0501,-2.31045 c -0.007,-0.31431 -0.51672,-1.1837 -1.3348,-1.20251 -0.59399,-0.0137 -0.75064,0.0348 -1.34152,0.0331 -0.80177,-0.002 -1.1909,-0.48553 -1.44643,-0.68161 -0.41008,-0.31469 -0.41031,-1.24592 -0.41031,-1.24592 v -1.02164 -0.98185 -10.18285 c 0,-1.73242 -0.77296,-3.12694 -1.73322,-3.12694 h -3.48248 c -0.96027,0 -1.73323,1.39452 -1.73323,3.12694 v 8.26513 c 0,0 -0.13387,0.79964 -0.23409,1.24954 -0.069,0.30977 -0.65355,1.00873 -0.92708,1.11156 l -1.24385,0.46767 h -30.7113 c 0,0 -1.13182,0.004 -2.26705,-1.13378 -0.5023,-0.50358 -1.51451,-1.25942 -0.971,-2.59364 0.80203,-1.96883 1.2444,-4.11892 1.24437,-6.36809 7e-5,-5.70124 -2.84085,-10.76835 -7.17763,-13.85617 -0.3515,-0.24992 -0.4214,-0.26402 -1.16291,-0.5412 -0.74151,-0.27718 -0.85665,-0.23701 -1.34186,-0.236 l -14.58306,0.0305 c -0.49535,0.0145 -0.61796,-0.0229 -1.22894,0.14166 -0.74883,0.20165 -0.78165,0.23179 -1.06114,0.4193 -4.4864,3.06792 -7.444,8.22486 -7.44392,14.04194 -6e-5,4.0848 1.45887,7.84379 3.8809,10.78281 -0.15082,0.23412 -0.23927,0.51249 -0.23927,0.81287 v 7.07088 c 0,0.831 0.73919,1.83522 1.49965,1.50017 0,0 2.00239,-1.14249 3.09749,-1.46968 1.40036,-0.41838 4.3434,-0.60151 4.3434,-0.60151 h 17.51676 c 0,0 0.25164,-0.01 0.37982,0.0124 0.85045,0.14691 1.69123,0.44405 2.44946,0.85628 0.53001,0.28814 1.43661,1.10071 1.43661,1.10071 0.93912,0.71959 0.77296,2.13578 1.73323,2.13578 z m -30.47255,-6.2854 c -1.10467,-7e-5 -2.00009,-0.89572 -1.99988,-2.00039 7e-5,-1.10448 0.89541,-1.99981 1.99988,-1.99988 1.10468,-2.2e-4 2.00033,0.8952 2.0004,1.99988 2.1e-4,1.10487 -0.89552,2.00061 -2.0004,2.00039 z m 12.27839,-5.88476 c -0.22978,0.0533 -0.44693,0.065 -0.44693,0.065 h -8.17513 c 0,0 -0.0681,0.005 -0.15459,-0.007 -0.0617,-0.008 -0.0775,-0.0231 -0.11237,-0.0387 -3.84177,-1.70906 -6.49725,-5.54689 -6.49719,-10.04946 -5e-5,-4.16656 2.27318,-7.76487 5.65673,-9.63311 0.032,-0.0177 0.0808,-0.0391 0.11729,-0.0422 l 0.12359,-0.0105 h 10.08701 l 0.2039,0.0177 c 0.0773,0.007 0.19514,0.0566 0.26251,0.0948 3.32397,1.88469 5.54923,5.45103 5.54917,9.5732 6e-5,4.36586 -2.49668,8.10676 -6.15065,9.88797 -0.14862,0.0725 -0.23356,0.0893 -0.46334,0.14258 z"
       style="stroke-width:0.26458332" />
  </g>
</svg>
